<mxfile host="app.diagrams.net" agent="Mozilla/5.0 (Macintosh; Intel Mac OS X 10_15_7) AppleWebKit/537.36 (KHTML, like Gecko) Chrome/138.0.0.0 Safari/537.36" version="27.2.0">
  <diagram name="第 1 页" id="sT8HzIj2YNUEJZkm_Qst">
    <mxGraphModel dx="1685" dy="2264" grid="1" gridSize="10" guides="1" tooltips="1" connect="1" arrows="1" fold="1" page="1" pageScale="1" pageWidth="827" pageHeight="1169" math="0" shadow="0">
      <root>
        <mxCell id="0" />
        <mxCell id="1" parent="0" />
        <mxCell id="TXACmknkXb2Owu_Iaf9k-64" value="&lt;font style=&quot;font-size: 26px;&quot; face=&quot;Times New Roman&quot;&gt;&amp;nbsp; &amp;nbsp; &amp;nbsp; &amp;nbsp; &amp;nbsp; &amp;nbsp;FeedManager.mix ( )&lt;/font&gt;" style="rounded=1;whiteSpace=wrap;html=1;fillColor=#ffe6cc;strokeColor=#d79b00;" vertex="1" parent="1">
          <mxGeometry x="40" y="610" width="740" height="60" as="geometry" />
        </mxCell>
        <mxCell id="TXACmknkXb2Owu_Iaf9k-68" style="edgeStyle=orthogonalEdgeStyle;rounded=0;orthogonalLoop=1;jettySize=auto;html=1;entryX=0;entryY=0.25;entryDx=0;entryDy=0;" edge="1" parent="1" source="TXACmknkXb2Owu_Iaf9k-1" target="TXACmknkXb2Owu_Iaf9k-10">
          <mxGeometry relative="1" as="geometry" />
        </mxCell>
        <mxCell id="TXACmknkXb2Owu_Iaf9k-69" value="发送&lt;div&gt;请求&lt;/div&gt;" style="edgeLabel;html=1;align=center;verticalAlign=middle;resizable=0;points=[];" vertex="1" connectable="0" parent="TXACmknkXb2Owu_Iaf9k-68">
          <mxGeometry x="-0.2333" y="1" relative="1" as="geometry">
            <mxPoint as="offset" />
          </mxGeometry>
        </mxCell>
        <mxCell id="TXACmknkXb2Owu_Iaf9k-1" value="Actor" style="shape=umlActor;verticalLabelPosition=bottom;verticalAlign=top;html=1;outlineConnect=0;fontFamily=Times New Roman;fontSize=14;" vertex="1" parent="1">
          <mxGeometry x="10" y="88" width="30" height="60" as="geometry" />
        </mxCell>
        <mxCell id="TXACmknkXb2Owu_Iaf9k-2" value="&lt;font&gt;VideoV2&lt;/font&gt;" style="rounded=1;whiteSpace=wrap;html=1;fontFamily=Times New Roman;fontSize=14;" vertex="1" parent="1">
          <mxGeometry x="70" y="10" width="60" height="60" as="geometry" />
        </mxCell>
        <mxCell id="TXACmknkXb2Owu_Iaf9k-3" value="FeedMixManage.mix" style="rounded=1;whiteSpace=wrap;html=1;fontFamily=Times New Roman;fontSize=14;" vertex="1" parent="1">
          <mxGeometry x="240" y="-160" width="130" height="60" as="geometry" />
        </mxCell>
        <mxCell id="TXACmknkXb2Owu_Iaf9k-4" value="newFeedMix&lt;div&gt;newFeedLaunchMix&lt;/div&gt;&lt;div&gt;oldInsertMix&lt;/div&gt;" style="rounded=1;whiteSpace=wrap;html=1;fontFamily=Times New Roman;fontSize=14;" vertex="1" parent="1">
          <mxGeometry x="150" y="10" width="120" height="60" as="geometry" />
        </mxCell>
        <mxCell id="TXACmknkXb2Owu_Iaf9k-5" value="getVideoContentV0ForStrategy" style="rounded=1;whiteSpace=wrap;html=1;fontFamily=Times New Roman;fontSize=14;" vertex="1" parent="1">
          <mxGeometry x="290" y="10" width="190" height="60" as="geometry" />
        </mxCell>
        <mxCell id="TXACmknkXb2Owu_Iaf9k-6" value="AbstractStrategy&lt;div&gt;.undertake&lt;/div&gt;" style="rounded=1;whiteSpace=wrap;html=1;fontFamily=Times New Roman;fontSize=14;" vertex="1" parent="1">
          <mxGeometry x="500" y="10" width="140" height="60" as="geometry" />
        </mxCell>
        <mxCell id="TXACmknkXb2Owu_Iaf9k-8" value="AbstractContractor&lt;div&gt;.execute&lt;/div&gt;" style="rounded=1;whiteSpace=wrap;html=1;fontFamily=Times New Roman;fontSize=14;" vertex="1" parent="1">
          <mxGeometry x="660" y="10" width="120" height="60" as="geometry" />
        </mxCell>
        <mxCell id="TXACmknkXb2Owu_Iaf9k-9" value="" style="endArrow=none;html=1;rounded=0;entryX=0.5;entryY=1;entryDx=0;entryDy=0;" edge="1" parent="1" source="TXACmknkXb2Owu_Iaf9k-10" target="TXACmknkXb2Owu_Iaf9k-2">
          <mxGeometry width="50" height="50" relative="1" as="geometry">
            <mxPoint x="100" y="682" as="sourcePoint" />
            <mxPoint x="140" y="140" as="targetPoint" />
          </mxGeometry>
        </mxCell>
        <mxCell id="TXACmknkXb2Owu_Iaf9k-10" value="" style="rounded=1;whiteSpace=wrap;html=1;" vertex="1" parent="1">
          <mxGeometry x="92" y="90" width="16" height="110" as="geometry" />
        </mxCell>
        <mxCell id="TXACmknkXb2Owu_Iaf9k-15" value="" style="endArrow=none;html=1;rounded=0;entryX=0.5;entryY=1;entryDx=0;entryDy=0;" edge="1" parent="1" source="TXACmknkXb2Owu_Iaf9k-20">
          <mxGeometry width="50" height="50" relative="1" as="geometry">
            <mxPoint x="209.57" y="602" as="sourcePoint" />
            <mxPoint x="209.57" y="70" as="targetPoint" />
          </mxGeometry>
        </mxCell>
        <mxCell id="TXACmknkXb2Owu_Iaf9k-17" value="" style="endArrow=none;html=1;rounded=0;entryX=0.5;entryY=1;entryDx=0;entryDy=0;" edge="1" parent="1">
          <mxGeometry width="50" height="50" relative="1" as="geometry">
            <mxPoint x="570" y="602" as="sourcePoint" />
            <mxPoint x="570" y="70" as="targetPoint" />
          </mxGeometry>
        </mxCell>
        <mxCell id="TXACmknkXb2Owu_Iaf9k-18" value="" style="endArrow=none;html=1;rounded=0;entryX=0.5;entryY=1;entryDx=0;entryDy=0;" edge="1" parent="1" source="TXACmknkXb2Owu_Iaf9k-39">
          <mxGeometry width="50" height="50" relative="1" as="geometry">
            <mxPoint x="719.44" y="602" as="sourcePoint" />
            <mxPoint x="719.44" y="70" as="targetPoint" />
          </mxGeometry>
        </mxCell>
        <mxCell id="TXACmknkXb2Owu_Iaf9k-21" value="" style="endArrow=none;html=1;rounded=0;entryX=0.5;entryY=1;entryDx=0;entryDy=0;" edge="1" parent="1" source="TXACmknkXb2Owu_Iaf9k-54" target="TXACmknkXb2Owu_Iaf9k-20">
          <mxGeometry width="50" height="50" relative="1" as="geometry">
            <mxPoint x="209.57" y="602" as="sourcePoint" />
            <mxPoint x="209.57" y="70" as="targetPoint" />
          </mxGeometry>
        </mxCell>
        <mxCell id="TXACmknkXb2Owu_Iaf9k-20" value="" style="rounded=1;whiteSpace=wrap;html=1;" vertex="1" parent="1">
          <mxGeometry x="202" y="150" width="16" height="60" as="geometry" />
        </mxCell>
        <mxCell id="TXACmknkXb2Owu_Iaf9k-26" value="&lt;span style=&quot;font-size: 11px; background-color: rgb(255, 255, 255);&quot;&gt;根据实验确认&lt;/span&gt;&lt;div style=&quot;font-size: 11px;&quot;&gt;插入视频方式&lt;/div&gt;" style="text;html=1;align=center;verticalAlign=middle;resizable=0;points=[];autosize=1;strokeColor=none;fillColor=none;" vertex="1" parent="1">
          <mxGeometry x="108" y="130" width="90" height="40" as="geometry" />
        </mxCell>
        <mxCell id="TXACmknkXb2Owu_Iaf9k-27" value="&lt;span style=&quot;font-size: 11px; background-color: rgb(255, 255, 255);&quot;&gt;1. 确认当前请求命中策略&lt;/span&gt;&lt;div&gt;&lt;div&gt;&lt;span style=&quot;font-size: 11px; background-color: rgb(255, 255, 255);&quot;&gt;2. 按策略逻辑获取视频VO&lt;/span&gt;&lt;/div&gt;&lt;/div&gt;" style="text;html=1;align=center;verticalAlign=middle;resizable=0;points=[];autosize=1;strokeColor=none;fillColor=none;" vertex="1" parent="1">
          <mxGeometry x="217" y="150" width="150" height="40" as="geometry" />
        </mxCell>
        <mxCell id="TXACmknkXb2Owu_Iaf9k-28" value="&lt;span style=&quot;font-size: 11px; background-color: rgb(255, 255, 255);&quot;&gt;1.根据策略确定&lt;/span&gt;&lt;span style=&quot;background-color: light-dark(rgb(255, 255, 255), rgb(18, 18, 18)); font-size: 11px; color: light-dark(rgb(0, 0, 0), rgb(255, 255, 255));&quot;&gt;视频所需&lt;/span&gt;&lt;div&gt;&lt;span style=&quot;background-color: light-dark(rgb(255, 255, 255), rgb(18, 18, 18)); font-size: 11px; color: light-dark(rgb(0, 0, 0), rgb(255, 255, 255));&quot;&gt;上下文&lt;/span&gt;&lt;div&gt;&lt;div&gt;&lt;span style=&quot;font-size: 11px; background-color: rgb(255, 255, 255);&quot;&gt;2.请求对应视频内容&lt;/span&gt;&lt;/div&gt;&lt;/div&gt;&lt;/div&gt;" style="text;html=1;align=center;verticalAlign=middle;resizable=0;points=[];autosize=1;strokeColor=none;fillColor=none;" vertex="1" parent="1">
          <mxGeometry x="572" y="190" width="140" height="60" as="geometry" />
        </mxCell>
        <mxCell id="TXACmknkXb2Owu_Iaf9k-29" value="&lt;span style=&quot;font-size: 11px; background-color: rgb(255, 255, 255);&quot;&gt;判断是否需要主动降级&lt;/span&gt;&lt;div&gt;&lt;span style=&quot;font-size: 11px; background-color: rgb(255, 255, 255);&quot;&gt;从兜底池获取视频内容&lt;/span&gt;&lt;/div&gt;" style="text;html=1;align=center;verticalAlign=middle;resizable=0;points=[];autosize=1;strokeColor=none;fillColor=none;" vertex="1" parent="1">
          <mxGeometry x="410" y="183" width="130" height="40" as="geometry" />
        </mxCell>
        <mxCell id="TXACmknkXb2Owu_Iaf9k-30" style="edgeStyle=orthogonalEdgeStyle;rounded=0;orthogonalLoop=1;jettySize=auto;html=1;exitX=1;exitY=0.75;exitDx=0;exitDy=0;entryX=0.042;entryY=0.381;entryDx=0;entryDy=0;entryPerimeter=0;" edge="1" parent="1" source="TXACmknkXb2Owu_Iaf9k-10" target="TXACmknkXb2Owu_Iaf9k-20">
          <mxGeometry relative="1" as="geometry" />
        </mxCell>
        <mxCell id="TXACmknkXb2Owu_Iaf9k-32" style="edgeStyle=orthogonalEdgeStyle;rounded=0;orthogonalLoop=1;jettySize=auto;html=1;entryX=-0.111;entryY=0.389;entryDx=0;entryDy=0;entryPerimeter=0;" edge="1" parent="1">
          <mxGeometry relative="1" as="geometry">
            <mxPoint x="220" y="195" as="sourcePoint" />
            <mxPoint x="376.22400000000005" y="195.34000000000015" as="targetPoint" />
          </mxGeometry>
        </mxCell>
        <mxCell id="TXACmknkXb2Owu_Iaf9k-33" value="" style="endArrow=none;html=1;rounded=0;entryX=0.5;entryY=1;entryDx=0;entryDy=0;" edge="1" parent="1" source="TXACmknkXb2Owu_Iaf9k-49">
          <mxGeometry width="50" height="50" relative="1" as="geometry">
            <mxPoint x="384.63" y="602" as="sourcePoint" />
            <mxPoint x="384.63" y="70" as="targetPoint" />
          </mxGeometry>
        </mxCell>
        <mxCell id="TXACmknkXb2Owu_Iaf9k-36" value="" style="rounded=1;whiteSpace=wrap;html=1;" vertex="1" parent="1">
          <mxGeometry x="377" y="181" width="16" height="60" as="geometry" />
        </mxCell>
        <mxCell id="TXACmknkXb2Owu_Iaf9k-37" value="" style="rounded=1;whiteSpace=wrap;html=1;" vertex="1" parent="1">
          <mxGeometry x="562" y="200" width="16" height="60" as="geometry" />
        </mxCell>
        <mxCell id="TXACmknkXb2Owu_Iaf9k-38" style="edgeStyle=orthogonalEdgeStyle;rounded=0;orthogonalLoop=1;jettySize=auto;html=1;exitX=1;exitY=0.75;exitDx=0;exitDy=0;entryX=-0.039;entryY=0.42;entryDx=0;entryDy=0;entryPerimeter=0;" edge="1" parent="1" source="TXACmknkXb2Owu_Iaf9k-36" target="TXACmknkXb2Owu_Iaf9k-37">
          <mxGeometry relative="1" as="geometry" />
        </mxCell>
        <mxCell id="TXACmknkXb2Owu_Iaf9k-40" value="" style="endArrow=none;html=1;rounded=0;entryX=0.5;entryY=1;entryDx=0;entryDy=0;" edge="1" parent="1" target="TXACmknkXb2Owu_Iaf9k-39">
          <mxGeometry width="50" height="50" relative="1" as="geometry">
            <mxPoint x="719.44" y="602" as="sourcePoint" />
            <mxPoint x="719.44" y="70" as="targetPoint" />
          </mxGeometry>
        </mxCell>
        <mxCell id="TXACmknkXb2Owu_Iaf9k-46" style="edgeStyle=orthogonalEdgeStyle;rounded=0;orthogonalLoop=1;jettySize=auto;html=1;exitX=0;exitY=1;exitDx=0;exitDy=0;entryX=1;entryY=0.75;entryDx=0;entryDy=0;" edge="1" parent="1" source="TXACmknkXb2Owu_Iaf9k-39" target="TXACmknkXb2Owu_Iaf9k-45">
          <mxGeometry relative="1" as="geometry">
            <Array as="points">
              <mxPoint x="712" y="475" />
            </Array>
          </mxGeometry>
        </mxCell>
        <mxCell id="TXACmknkXb2Owu_Iaf9k-39" value="" style="rounded=1;whiteSpace=wrap;html=1;" vertex="1" parent="1">
          <mxGeometry x="712" y="230" width="16" height="250" as="geometry" />
        </mxCell>
        <mxCell id="TXACmknkXb2Owu_Iaf9k-42" style="edgeStyle=orthogonalEdgeStyle;rounded=0;orthogonalLoop=1;jettySize=auto;html=1;exitX=1;exitY=0.25;exitDx=0;exitDy=0;entryX=1.011;entryY=0.88;entryDx=0;entryDy=0;entryPerimeter=0;" edge="1" parent="1" source="TXACmknkXb2Owu_Iaf9k-39" target="TXACmknkXb2Owu_Iaf9k-39">
          <mxGeometry relative="1" as="geometry" />
        </mxCell>
        <mxCell id="TXACmknkXb2Owu_Iaf9k-43" style="edgeStyle=orthogonalEdgeStyle;rounded=0;orthogonalLoop=1;jettySize=auto;html=1;exitX=1;exitY=0.75;exitDx=0;exitDy=0;" edge="1" parent="1" source="TXACmknkXb2Owu_Iaf9k-37">
          <mxGeometry relative="1" as="geometry">
            <mxPoint x="710" y="245" as="targetPoint" />
          </mxGeometry>
        </mxCell>
        <mxCell id="TXACmknkXb2Owu_Iaf9k-44" value="调用&lt;div&gt;对应&lt;/div&gt;&lt;div&gt;上游&lt;/div&gt;&lt;div&gt;服务&lt;div&gt;获取&lt;/div&gt;&lt;div&gt;视频&lt;/div&gt;&lt;div&gt;内容&lt;/div&gt;&lt;/div&gt;" style="text;html=1;align=center;verticalAlign=middle;resizable=0;points=[];autosize=1;strokeColor=none;fillColor=none;" vertex="1" parent="1">
          <mxGeometry x="740" y="300" width="50" height="110" as="geometry" />
        </mxCell>
        <mxCell id="TXACmknkXb2Owu_Iaf9k-45" value="" style="rounded=1;whiteSpace=wrap;html=1;" vertex="1" parent="1">
          <mxGeometry x="562" y="430" width="16" height="60" as="geometry" />
        </mxCell>
        <mxCell id="TXACmknkXb2Owu_Iaf9k-51" style="edgeStyle=orthogonalEdgeStyle;rounded=0;orthogonalLoop=1;jettySize=auto;html=1;entryX=1;entryY=0.5;entryDx=0;entryDy=0;" edge="1" parent="1" source="TXACmknkXb2Owu_Iaf9k-48" target="TXACmknkXb2Owu_Iaf9k-49">
          <mxGeometry relative="1" as="geometry" />
        </mxCell>
        <mxCell id="TXACmknkXb2Owu_Iaf9k-48" value="返回结果&lt;div&gt;ContractorExecuteResult&lt;/div&gt;" style="text;html=1;align=center;verticalAlign=middle;resizable=0;points=[];autosize=1;strokeColor=none;fillColor=none;" vertex="1" parent="1">
          <mxGeometry x="562" y="470" width="160" height="40" as="geometry" />
        </mxCell>
        <mxCell id="TXACmknkXb2Owu_Iaf9k-50" value="" style="endArrow=none;html=1;rounded=0;entryX=0.5;entryY=1;entryDx=0;entryDy=0;" edge="1" parent="1" target="TXACmknkXb2Owu_Iaf9k-49">
          <mxGeometry width="50" height="50" relative="1" as="geometry">
            <mxPoint x="384.63" y="602" as="sourcePoint" />
            <mxPoint x="384.63" y="70" as="targetPoint" />
          </mxGeometry>
        </mxCell>
        <mxCell id="TXACmknkXb2Owu_Iaf9k-56" style="edgeStyle=orthogonalEdgeStyle;rounded=0;orthogonalLoop=1;jettySize=auto;html=1;exitX=0;exitY=0.75;exitDx=0;exitDy=0;entryX=1;entryY=0.25;entryDx=0;entryDy=0;" edge="1" parent="1" source="TXACmknkXb2Owu_Iaf9k-49" target="TXACmknkXb2Owu_Iaf9k-54">
          <mxGeometry relative="1" as="geometry" />
        </mxCell>
        <mxCell id="TXACmknkXb2Owu_Iaf9k-49" value="&lt;span style=&quot;color: rgba(0, 0, 0, 0); font-family: monospace; font-size: 0px; text-align: start; text-wrap-mode: nowrap;&quot;&gt;%3CmxGraphModel%3E%3Croot%3E%3CmxCell%20id%3D%220%22%2F%3E%3CmxCell%20id%3D%221%22%20parent%3D%220%22%2F%3E%3CmxCell%20id%3D%222%22%20value%3D%22%22%20style%3D%22rounded%3D1%3BwhiteSpace%3Dwrap%3Bhtml%3D1%3B%22%20vertex%3D%221%22%20parent%3D%221%22%3E%3CmxGeometry%20x%3D%22377%22%20y%3D%22460%22%20width%3D%2216%22%20height%3D%2260%22%20as%3D%22geometry%22%2F%3E%3C%2FmxCell%3E%3C%2Froot%3E%3C%2FmxGraphModel%3E&lt;/span&gt;" style="rounded=1;whiteSpace=wrap;html=1;" vertex="1" parent="1">
          <mxGeometry x="377" y="460" width="16" height="60" as="geometry" />
        </mxCell>
        <mxCell id="TXACmknkXb2Owu_Iaf9k-52" value="返回结果&lt;div&gt;VideoContentVO&lt;/div&gt;" style="text;html=1;align=center;verticalAlign=middle;resizable=0;points=[];autosize=1;strokeColor=none;fillColor=none;" vertex="1" parent="1">
          <mxGeometry x="427" y="490" width="110" height="40" as="geometry" />
        </mxCell>
        <mxCell id="TXACmknkXb2Owu_Iaf9k-55" value="" style="endArrow=none;html=1;rounded=0;entryX=0.5;entryY=1;entryDx=0;entryDy=0;" edge="1" parent="1" target="TXACmknkXb2Owu_Iaf9k-54">
          <mxGeometry width="50" height="50" relative="1" as="geometry">
            <mxPoint x="209.57" y="602" as="sourcePoint" />
            <mxPoint x="210" y="210" as="targetPoint" />
          </mxGeometry>
        </mxCell>
        <mxCell id="TXACmknkXb2Owu_Iaf9k-61" style="edgeStyle=orthogonalEdgeStyle;rounded=0;orthogonalLoop=1;jettySize=auto;html=1;" edge="1" parent="1" source="TXACmknkXb2Owu_Iaf9k-54">
          <mxGeometry relative="1" as="geometry">
            <mxPoint x="110" y="519.9999999999998" as="targetPoint" />
          </mxGeometry>
        </mxCell>
        <mxCell id="TXACmknkXb2Owu_Iaf9k-54" value="&lt;span style=&quot;color: rgba(0, 0, 0, 0); font-family: monospace; font-size: 0px; text-align: start; text-wrap-mode: nowrap;&quot;&gt;%3CmxGraphModel%3E%3Croot%3E%3CmxCell%20id%3D%220%22%2F%3E%3CmxCell%20id%3D%221%22%20parent%3D%220%22%2F%3E%3CmxCell%20id%3D%222%22%20value%3D%22%22%20style%3D%22rounded%3D1%3BwhiteSpace%3Dwrap%3Bhtml%3D1%3B%22%20vertex%3D%221%22%20parent%3D%221%22%3E%3CmxGeometry%20x%3D%22377%22%20y%3D%22460%22%20width%3D%2216%22%20height%3D%2260%22%20as%3D%22geometry%22%2F%3E%3C%2FmxCell%3E%3C%2Froot%3E%3C%2FmxGraphModel%3E&lt;/span&gt;" style="rounded=1;whiteSpace=wrap;html=1;" vertex="1" parent="1">
          <mxGeometry x="202" y="490" width="16" height="60" as="geometry" />
        </mxCell>
        <mxCell id="TXACmknkXb2Owu_Iaf9k-57" value="返回结果&lt;div&gt;VideoContentVO&lt;/div&gt;" style="text;html=1;align=center;verticalAlign=middle;resizable=0;points=[];autosize=1;strokeColor=none;fillColor=none;" vertex="1" parent="1">
          <mxGeometry x="240" y="510" width="110" height="40" as="geometry" />
        </mxCell>
        <mxCell id="TXACmknkXb2Owu_Iaf9k-58" value="" style="endArrow=none;html=1;rounded=0;entryX=0.5;entryY=1;entryDx=0;entryDy=0;" edge="1" parent="1" source="TXACmknkXb2Owu_Iaf9k-59" target="TXACmknkXb2Owu_Iaf9k-10">
          <mxGeometry width="50" height="50" relative="1" as="geometry">
            <mxPoint x="100" y="600.6451612903226" as="sourcePoint" />
            <mxPoint x="110" y="240" as="targetPoint" />
          </mxGeometry>
        </mxCell>
        <mxCell id="TXACmknkXb2Owu_Iaf9k-60" value="" style="endArrow=none;html=1;rounded=0;entryX=0.5;entryY=1;entryDx=0;entryDy=0;" edge="1" parent="1" target="TXACmknkXb2Owu_Iaf9k-59">
          <mxGeometry width="50" height="50" relative="1" as="geometry">
            <mxPoint x="100" y="600.6451612903226" as="sourcePoint" />
            <mxPoint x="100" y="200" as="targetPoint" />
          </mxGeometry>
        </mxCell>
        <mxCell id="TXACmknkXb2Owu_Iaf9k-59" value="&lt;span style=&quot;color: rgba(0, 0, 0, 0); font-family: monospace; font-size: 0px; text-align: start; text-wrap-mode: nowrap;&quot;&gt;%3CmxGraphModel%3E%3Croot%3E%3CmxCell%20id%3D%220%22%2F%3E%3CmxCell%20id%3D%221%22%20parent%3D%220%22%2F%3E%3CmxCell%20id%3D%222%22%20value%3D%22%22%20style%3D%22rounded%3D1%3BwhiteSpace%3Dwrap%3Bhtml%3D1%3B%22%20vertex%3D%221%22%20parent%3D%221%22%3E%3CmxGeometry%20x%3D%22377%22%20y%3D%22460%22%20width%3D%2216%22%20height%3D%2260%22%20as%3D%22geometry%22%2F%3E%3C%2FmxCell%3E%3C%2Froot%3E%3C%2FmxGraphModel%3E&lt;/span&gt;" style="rounded=1;whiteSpace=wrap;html=1;" vertex="1" parent="1">
          <mxGeometry x="92" y="511" width="16" height="60" as="geometry" />
        </mxCell>
        <mxCell id="TXACmknkXb2Owu_Iaf9k-63" value="返回结果&lt;div&gt;VideoContentVO&lt;/div&gt;" style="text;html=1;align=center;verticalAlign=middle;resizable=0;points=[];autosize=1;strokeColor=none;fillColor=none;" vertex="1" parent="1">
          <mxGeometry x="100" y="520" width="110" height="40" as="geometry" />
        </mxCell>
        <mxCell id="TXACmknkXb2Owu_Iaf9k-65" value="&lt;font style=&quot;font-size: 30px;&quot; face=&quot;Times New Roman&quot;&gt;CAPI&lt;/font&gt;" style="text;html=1;align=center;verticalAlign=middle;whiteSpace=wrap;rounded=0;" vertex="1" parent="1">
          <mxGeometry x="60" y="625" width="60" height="30" as="geometry" />
        </mxCell>
        <mxCell id="TXACmknkXb2Owu_Iaf9k-70" value="&lt;font face=&quot;Times New Roman&quot;&gt;&lt;span style=&quot;font-size: 26px;&quot;&gt;executePack ( )&lt;/span&gt;&lt;/font&gt;" style="rounded=1;whiteSpace=wrap;html=1;fillColor=#ffe6cc;strokeColor=#d79b00;" vertex="1" parent="1">
          <mxGeometry x="881" y="610" width="740" height="60" as="geometry" />
        </mxCell>
        <mxCell id="TXACmknkXb2Owu_Iaf9k-71" style="edgeStyle=orthogonalEdgeStyle;rounded=0;orthogonalLoop=1;jettySize=auto;html=1;entryX=0;entryY=0.25;entryDx=0;entryDy=0;" edge="1" parent="1" source="TXACmknkXb2Owu_Iaf9k-73" target="TXACmknkXb2Owu_Iaf9k-80">
          <mxGeometry relative="1" as="geometry" />
        </mxCell>
        <mxCell id="TXACmknkXb2Owu_Iaf9k-72" value="发送&lt;div&gt;请求&lt;/div&gt;" style="edgeLabel;html=1;align=center;verticalAlign=middle;resizable=0;points=[];" vertex="1" connectable="0" parent="TXACmknkXb2Owu_Iaf9k-71">
          <mxGeometry x="-0.2333" y="1" relative="1" as="geometry">
            <mxPoint as="offset" />
          </mxGeometry>
        </mxCell>
        <mxCell id="TXACmknkXb2Owu_Iaf9k-73" value="Actor" style="shape=umlActor;verticalLabelPosition=bottom;verticalAlign=top;html=1;outlineConnect=0;fontFamily=Times New Roman;fontSize=14;" vertex="1" parent="1">
          <mxGeometry x="851" y="88" width="30" height="60" as="geometry" />
        </mxCell>
        <mxCell id="TXACmknkXb2Owu_Iaf9k-74" value="&lt;font&gt;getFeeds&lt;/font&gt;" style="rounded=1;whiteSpace=wrap;html=1;fontFamily=Times New Roman;fontSize=14;" vertex="1" parent="1">
          <mxGeometry x="911" y="10" width="60" height="60" as="geometry" />
        </mxCell>
        <mxCell id="TXACmknkXb2Owu_Iaf9k-75" value="addPackExtendInfo" style="rounded=1;whiteSpace=wrap;html=1;fontFamily=Times New Roman;fontSize=14;" vertex="1" parent="1">
          <mxGeometry x="991" y="10" width="120" height="60" as="geometry" />
        </mxCell>
        <mxCell id="TXACmknkXb2Owu_Iaf9k-76" value="batchGetVideoInfosForPacking" style="rounded=1;whiteSpace=wrap;html=1;fontFamily=Times New Roman;fontSize=14;" vertex="1" parent="1">
          <mxGeometry x="1131" y="10" width="190" height="60" as="geometry" />
        </mxCell>
        <mxCell id="TXACmknkXb2Owu_Iaf9k-77" value="batchGetVideoContents" style="rounded=1;whiteSpace=wrap;html=1;fontFamily=Times New Roman;fontSize=14;" vertex="1" parent="1">
          <mxGeometry x="1341" y="10" width="140" height="60" as="geometry" />
        </mxCell>
        <mxCell id="TXACmknkXb2Owu_Iaf9k-78" value="getLagecyFeedViews" style="rounded=1;whiteSpace=wrap;html=1;fontFamily=Times New Roman;fontSize=14;" vertex="1" parent="1">
          <mxGeometry x="1501" y="10" width="129" height="60" as="geometry" />
        </mxCell>
        <mxCell id="TXACmknkXb2Owu_Iaf9k-79" value="" style="endArrow=none;html=1;rounded=0;entryX=0.5;entryY=1;entryDx=0;entryDy=0;" edge="1" parent="1" source="TXACmknkXb2Owu_Iaf9k-80" target="TXACmknkXb2Owu_Iaf9k-74">
          <mxGeometry width="50" height="50" relative="1" as="geometry">
            <mxPoint x="941" y="682" as="sourcePoint" />
            <mxPoint x="981" y="140" as="targetPoint" />
          </mxGeometry>
        </mxCell>
        <mxCell id="TXACmknkXb2Owu_Iaf9k-80" value="" style="rounded=1;whiteSpace=wrap;html=1;" vertex="1" parent="1">
          <mxGeometry x="933" y="90" width="16" height="110" as="geometry" />
        </mxCell>
        <mxCell id="TXACmknkXb2Owu_Iaf9k-81" value="" style="endArrow=none;html=1;rounded=0;entryX=0.5;entryY=1;entryDx=0;entryDy=0;" edge="1" parent="1" source="TXACmknkXb2Owu_Iaf9k-85">
          <mxGeometry width="50" height="50" relative="1" as="geometry">
            <mxPoint x="1050.57" y="602" as="sourcePoint" />
            <mxPoint x="1050.57" y="70" as="targetPoint" />
          </mxGeometry>
        </mxCell>
        <mxCell id="TXACmknkXb2Owu_Iaf9k-82" value="" style="endArrow=none;html=1;rounded=0;entryX=0.5;entryY=1;entryDx=0;entryDy=0;" edge="1" parent="1">
          <mxGeometry width="50" height="50" relative="1" as="geometry">
            <mxPoint x="1411" y="602" as="sourcePoint" />
            <mxPoint x="1411" y="70" as="targetPoint" />
          </mxGeometry>
        </mxCell>
        <mxCell id="TXACmknkXb2Owu_Iaf9k-83" value="" style="endArrow=none;html=1;rounded=0;entryX=0.5;entryY=1;entryDx=0;entryDy=0;" edge="1" parent="1" source="TXACmknkXb2Owu_Iaf9k-98">
          <mxGeometry width="50" height="50" relative="1" as="geometry">
            <mxPoint x="1560.44" y="602" as="sourcePoint" />
            <mxPoint x="1560.44" y="70" as="targetPoint" />
          </mxGeometry>
        </mxCell>
        <mxCell id="TXACmknkXb2Owu_Iaf9k-84" value="" style="endArrow=none;html=1;rounded=0;entryX=0.5;entryY=1;entryDx=0;entryDy=0;" edge="1" parent="1" source="TXACmknkXb2Owu_Iaf9k-111" target="TXACmknkXb2Owu_Iaf9k-85">
          <mxGeometry width="50" height="50" relative="1" as="geometry">
            <mxPoint x="1050.57" y="602" as="sourcePoint" />
            <mxPoint x="1050.57" y="70" as="targetPoint" />
          </mxGeometry>
        </mxCell>
        <mxCell id="TXACmknkXb2Owu_Iaf9k-85" value="" style="rounded=1;whiteSpace=wrap;html=1;" vertex="1" parent="1">
          <mxGeometry x="1043" y="150" width="16" height="60" as="geometry" />
        </mxCell>
        <mxCell id="TXACmknkXb2Owu_Iaf9k-86" value="&lt;span style=&quot;font-size: 11px; background-color: rgb(255, 255, 255);&quot;&gt;塞入mix获取的&lt;/span&gt;&lt;div&gt;&lt;span style=&quot;font-size: 11px; background-color: rgb(255, 255, 255);&quot;&gt;VideoContentVO&lt;/span&gt;&lt;/div&gt;" style="text;html=1;align=center;verticalAlign=middle;resizable=0;points=[];autosize=1;strokeColor=none;fillColor=none;" vertex="1" parent="1">
          <mxGeometry x="939" y="130" width="110" height="40" as="geometry" />
        </mxCell>
        <mxCell id="TXACmknkXb2Owu_Iaf9k-87" value="&lt;span style=&quot;font-size: 11px; background-color: rgb(255, 255, 255);&quot;&gt;1.遍历List&amp;lt;VideoContent&amp;gt;&lt;/span&gt;&lt;div&gt;&lt;span style=&quot;font-size: 11px; background-color: rgb(255, 255, 255);&quot;&gt;2.填充各种Map&lt;/span&gt;&lt;/div&gt;&lt;div&gt;&lt;span style=&quot;font-size: 11px; background-color: rgb(255, 255, 255);&quot;&gt;3.构建打包参数&lt;/span&gt;&lt;/div&gt;" style="text;html=1;align=center;verticalAlign=middle;resizable=0;points=[];autosize=1;strokeColor=none;fillColor=none;" vertex="1" parent="1">
          <mxGeometry x="1058" y="140" width="150" height="60" as="geometry" />
        </mxCell>
        <mxCell id="TXACmknkXb2Owu_Iaf9k-88" value="&lt;span style=&quot;font-size: 11px; background-color: rgb(255, 255, 255);&quot;&gt;1.构建打包请求&lt;/span&gt;&lt;div&gt;&lt;span style=&quot;font-size: 11px; background-color: rgb(255, 255, 255);&quot;&gt;2.调用打包服务thrift接口&lt;/span&gt;&lt;/div&gt;" style="text;html=1;align=center;verticalAlign=middle;resizable=0;points=[];autosize=1;strokeColor=none;fillColor=none;" vertex="1" parent="1">
          <mxGeometry x="1413" y="200" width="140" height="40" as="geometry" />
        </mxCell>
        <mxCell id="TXACmknkXb2Owu_Iaf9k-89" value="&lt;span style=&quot;font-size: 11px; background-color: rgb(255, 255, 255);&quot;&gt;1.完善参数&lt;/span&gt;&lt;div&gt;&lt;span style=&quot;font-size: 11px; background-color: rgb(255, 255, 255);&quot;&gt;2.请求新链路&lt;/span&gt;&lt;/div&gt;" style="text;html=1;align=center;verticalAlign=middle;resizable=0;points=[];autosize=1;strokeColor=none;fillColor=none;" vertex="1" parent="1">
          <mxGeometry x="1271" y="183" width="90" height="40" as="geometry" />
        </mxCell>
        <mxCell id="TXACmknkXb2Owu_Iaf9k-90" style="edgeStyle=orthogonalEdgeStyle;rounded=0;orthogonalLoop=1;jettySize=auto;html=1;exitX=1;exitY=0.75;exitDx=0;exitDy=0;entryX=0.042;entryY=0.381;entryDx=0;entryDy=0;entryPerimeter=0;" edge="1" parent="1" source="TXACmknkXb2Owu_Iaf9k-80" target="TXACmknkXb2Owu_Iaf9k-85">
          <mxGeometry relative="1" as="geometry" />
        </mxCell>
        <mxCell id="TXACmknkXb2Owu_Iaf9k-91" style="edgeStyle=orthogonalEdgeStyle;rounded=0;orthogonalLoop=1;jettySize=auto;html=1;entryX=-0.111;entryY=0.389;entryDx=0;entryDy=0;entryPerimeter=0;" edge="1" parent="1">
          <mxGeometry relative="1" as="geometry">
            <mxPoint x="1061" y="195" as="sourcePoint" />
            <mxPoint x="1217.2240000000002" y="195.34000000000015" as="targetPoint" />
          </mxGeometry>
        </mxCell>
        <mxCell id="TXACmknkXb2Owu_Iaf9k-92" value="" style="endArrow=none;html=1;rounded=0;entryX=0.5;entryY=1;entryDx=0;entryDy=0;" edge="1" parent="1" source="TXACmknkXb2Owu_Iaf9k-107">
          <mxGeometry width="50" height="50" relative="1" as="geometry">
            <mxPoint x="1225.63" y="602" as="sourcePoint" />
            <mxPoint x="1225.63" y="70" as="targetPoint" />
          </mxGeometry>
        </mxCell>
        <mxCell id="TXACmknkXb2Owu_Iaf9k-93" value="" style="rounded=1;whiteSpace=wrap;html=1;" vertex="1" parent="1">
          <mxGeometry x="1218" y="181" width="16" height="60" as="geometry" />
        </mxCell>
        <mxCell id="TXACmknkXb2Owu_Iaf9k-94" value="" style="rounded=1;whiteSpace=wrap;html=1;" vertex="1" parent="1">
          <mxGeometry x="1403" y="200" width="16" height="60" as="geometry" />
        </mxCell>
        <mxCell id="TXACmknkXb2Owu_Iaf9k-95" style="edgeStyle=orthogonalEdgeStyle;rounded=0;orthogonalLoop=1;jettySize=auto;html=1;exitX=1;exitY=0.75;exitDx=0;exitDy=0;entryX=-0.039;entryY=0.42;entryDx=0;entryDy=0;entryPerimeter=0;" edge="1" parent="1" source="TXACmknkXb2Owu_Iaf9k-93" target="TXACmknkXb2Owu_Iaf9k-94">
          <mxGeometry relative="1" as="geometry" />
        </mxCell>
        <mxCell id="TXACmknkXb2Owu_Iaf9k-96" value="" style="endArrow=none;html=1;rounded=0;entryX=0.5;entryY=1;entryDx=0;entryDy=0;" edge="1" parent="1" target="TXACmknkXb2Owu_Iaf9k-98">
          <mxGeometry width="50" height="50" relative="1" as="geometry">
            <mxPoint x="1560.44" y="602" as="sourcePoint" />
            <mxPoint x="1560.44" y="70" as="targetPoint" />
          </mxGeometry>
        </mxCell>
        <mxCell id="TXACmknkXb2Owu_Iaf9k-97" style="edgeStyle=orthogonalEdgeStyle;rounded=0;orthogonalLoop=1;jettySize=auto;html=1;exitX=0;exitY=1;exitDx=0;exitDy=0;entryX=1;entryY=0.75;entryDx=0;entryDy=0;" edge="1" parent="1" source="TXACmknkXb2Owu_Iaf9k-98" target="TXACmknkXb2Owu_Iaf9k-102">
          <mxGeometry relative="1" as="geometry">
            <Array as="points">
              <mxPoint x="1553" y="475" />
            </Array>
          </mxGeometry>
        </mxCell>
        <mxCell id="TXACmknkXb2Owu_Iaf9k-98" value="" style="rounded=1;whiteSpace=wrap;html=1;" vertex="1" parent="1">
          <mxGeometry x="1553" y="230" width="16" height="250" as="geometry" />
        </mxCell>
        <mxCell id="TXACmknkXb2Owu_Iaf9k-99" style="edgeStyle=orthogonalEdgeStyle;rounded=0;orthogonalLoop=1;jettySize=auto;html=1;exitX=1;exitY=0.25;exitDx=0;exitDy=0;entryX=1.011;entryY=0.88;entryDx=0;entryDy=0;entryPerimeter=0;" edge="1" parent="1" source="TXACmknkXb2Owu_Iaf9k-98" target="TXACmknkXb2Owu_Iaf9k-98">
          <mxGeometry relative="1" as="geometry" />
        </mxCell>
        <mxCell id="TXACmknkXb2Owu_Iaf9k-100" style="edgeStyle=orthogonalEdgeStyle;rounded=0;orthogonalLoop=1;jettySize=auto;html=1;exitX=1;exitY=0.75;exitDx=0;exitDy=0;" edge="1" parent="1" source="TXACmknkXb2Owu_Iaf9k-94">
          <mxGeometry relative="1" as="geometry">
            <mxPoint x="1551" y="245" as="targetPoint" />
          </mxGeometry>
        </mxCell>
        <mxCell id="TXACmknkXb2Owu_Iaf9k-101" value="调用&lt;div&gt;打包&lt;/div&gt;&lt;div&gt;Thrift&lt;/div&gt;&lt;div&gt;接口&lt;/div&gt;" style="text;html=1;align=center;verticalAlign=middle;resizable=0;points=[];autosize=1;strokeColor=none;fillColor=none;" vertex="1" parent="1">
          <mxGeometry x="1581" y="320" width="50" height="70" as="geometry" />
        </mxCell>
        <mxCell id="TXACmknkXb2Owu_Iaf9k-118" style="edgeStyle=orthogonalEdgeStyle;rounded=0;orthogonalLoop=1;jettySize=auto;html=1;exitX=0;exitY=0.75;exitDx=0;exitDy=0;entryX=1;entryY=0.25;entryDx=0;entryDy=0;" edge="1" parent="1" source="TXACmknkXb2Owu_Iaf9k-102" target="TXACmknkXb2Owu_Iaf9k-107">
          <mxGeometry relative="1" as="geometry" />
        </mxCell>
        <mxCell id="TXACmknkXb2Owu_Iaf9k-102" value="" style="rounded=1;whiteSpace=wrap;html=1;" vertex="1" parent="1">
          <mxGeometry x="1403" y="430" width="16" height="60" as="geometry" />
        </mxCell>
        <mxCell id="TXACmknkXb2Owu_Iaf9k-104" value="返回结果&lt;div&gt;将LegacyFeedVO&lt;/div&gt;&lt;div&gt;转化为&lt;br&gt;&lt;div&gt;List&amp;lt;VideoContent&amp;gt;&lt;/div&gt;&lt;/div&gt;" style="text;html=1;align=center;verticalAlign=middle;resizable=0;points=[];autosize=1;strokeColor=none;fillColor=none;" vertex="1" parent="1">
          <mxGeometry x="1251" y="475" width="130" height="70" as="geometry" />
        </mxCell>
        <mxCell id="TXACmknkXb2Owu_Iaf9k-105" value="" style="endArrow=none;html=1;rounded=0;entryX=0.5;entryY=1;entryDx=0;entryDy=0;" edge="1" parent="1" target="TXACmknkXb2Owu_Iaf9k-107">
          <mxGeometry width="50" height="50" relative="1" as="geometry">
            <mxPoint x="1225.63" y="602" as="sourcePoint" />
            <mxPoint x="1225.63" y="70" as="targetPoint" />
          </mxGeometry>
        </mxCell>
        <mxCell id="TXACmknkXb2Owu_Iaf9k-106" style="edgeStyle=orthogonalEdgeStyle;rounded=0;orthogonalLoop=1;jettySize=auto;html=1;exitX=0;exitY=0.75;exitDx=0;exitDy=0;entryX=1;entryY=0.25;entryDx=0;entryDy=0;" edge="1" parent="1" source="TXACmknkXb2Owu_Iaf9k-107" target="TXACmknkXb2Owu_Iaf9k-111">
          <mxGeometry relative="1" as="geometry" />
        </mxCell>
        <mxCell id="TXACmknkXb2Owu_Iaf9k-107" value="&lt;span style=&quot;color: rgba(0, 0, 0, 0); font-family: monospace; font-size: 0px; text-align: start; text-wrap-mode: nowrap;&quot;&gt;%3CmxGraphModel%3E%3Croot%3E%3CmxCell%20id%3D%220%22%2F%3E%3CmxCell%20id%3D%221%22%20parent%3D%220%22%2F%3E%3CmxCell%20id%3D%222%22%20value%3D%22%22%20style%3D%22rounded%3D1%3BwhiteSpace%3Dwrap%3Bhtml%3D1%3B%22%20vertex%3D%221%22%20parent%3D%221%22%3E%3CmxGeometry%20x%3D%22377%22%20y%3D%22460%22%20width%3D%2216%22%20height%3D%2260%22%20as%3D%22geometry%22%2F%3E%3C%2FmxCell%3E%3C%2Froot%3E%3C%2FmxGraphModel%3E&lt;/span&gt;" style="rounded=1;whiteSpace=wrap;html=1;" vertex="1" parent="1">
          <mxGeometry x="1218" y="460" width="16" height="60" as="geometry" />
        </mxCell>
        <mxCell id="TXACmknkXb2Owu_Iaf9k-109" value="" style="endArrow=none;html=1;rounded=0;entryX=0.5;entryY=1;entryDx=0;entryDy=0;" edge="1" parent="1" target="TXACmknkXb2Owu_Iaf9k-111">
          <mxGeometry width="50" height="50" relative="1" as="geometry">
            <mxPoint x="1050.57" y="602" as="sourcePoint" />
            <mxPoint x="1051" y="210" as="targetPoint" />
          </mxGeometry>
        </mxCell>
        <mxCell id="TXACmknkXb2Owu_Iaf9k-110" style="edgeStyle=orthogonalEdgeStyle;rounded=0;orthogonalLoop=1;jettySize=auto;html=1;" edge="1" parent="1" source="TXACmknkXb2Owu_Iaf9k-111">
          <mxGeometry relative="1" as="geometry">
            <mxPoint x="951" y="519.9999999999998" as="targetPoint" />
          </mxGeometry>
        </mxCell>
        <mxCell id="TXACmknkXb2Owu_Iaf9k-111" value="&lt;span style=&quot;color: rgba(0, 0, 0, 0); font-family: monospace; font-size: 0px; text-align: start; text-wrap-mode: nowrap;&quot;&gt;%3CmxGraphModel%3E%3Croot%3E%3CmxCell%20id%3D%220%22%2F%3E%3CmxCell%20id%3D%221%22%20parent%3D%220%22%2F%3E%3CmxCell%20id%3D%222%22%20value%3D%22%22%20style%3D%22rounded%3D1%3BwhiteSpace%3Dwrap%3Bhtml%3D1%3B%22%20vertex%3D%221%22%20parent%3D%221%22%3E%3CmxGeometry%20x%3D%22377%22%20y%3D%22460%22%20width%3D%2216%22%20height%3D%2260%22%20as%3D%22geometry%22%2F%3E%3C%2FmxCell%3E%3C%2Froot%3E%3C%2FmxGraphModel%3E&lt;/span&gt;" style="rounded=1;whiteSpace=wrap;html=1;" vertex="1" parent="1">
          <mxGeometry x="1043" y="490" width="16" height="60" as="geometry" />
        </mxCell>
        <mxCell id="TXACmknkXb2Owu_Iaf9k-112" value="返回结果&lt;div&gt;List&amp;lt;VideoContent&amp;gt;&lt;/div&gt;" style="text;html=1;align=center;verticalAlign=middle;resizable=0;points=[];autosize=1;strokeColor=none;fillColor=none;" vertex="1" parent="1">
          <mxGeometry x="1071" y="510" width="130" height="40" as="geometry" />
        </mxCell>
        <mxCell id="TXACmknkXb2Owu_Iaf9k-113" value="" style="endArrow=none;html=1;rounded=0;entryX=0.5;entryY=1;entryDx=0;entryDy=0;" edge="1" parent="1" source="TXACmknkXb2Owu_Iaf9k-115" target="TXACmknkXb2Owu_Iaf9k-80">
          <mxGeometry width="50" height="50" relative="1" as="geometry">
            <mxPoint x="941" y="600.6451612903224" as="sourcePoint" />
            <mxPoint x="951" y="240" as="targetPoint" />
          </mxGeometry>
        </mxCell>
        <mxCell id="TXACmknkXb2Owu_Iaf9k-114" value="" style="endArrow=none;html=1;rounded=0;entryX=0.5;entryY=1;entryDx=0;entryDy=0;" edge="1" parent="1" target="TXACmknkXb2Owu_Iaf9k-115">
          <mxGeometry width="50" height="50" relative="1" as="geometry">
            <mxPoint x="941" y="600.6451612903224" as="sourcePoint" />
            <mxPoint x="941" y="200" as="targetPoint" />
          </mxGeometry>
        </mxCell>
        <mxCell id="TXACmknkXb2Owu_Iaf9k-115" value="&lt;span style=&quot;color: rgba(0, 0, 0, 0); font-family: monospace; font-size: 0px; text-align: start; text-wrap-mode: nowrap;&quot;&gt;%3CmxGraphModel%3E%3Croot%3E%3CmxCell%20id%3D%220%22%2F%3E%3CmxCell%20id%3D%221%22%20parent%3D%220%22%2F%3E%3CmxCell%20id%3D%222%22%20value%3D%22%22%20style%3D%22rounded%3D1%3BwhiteSpace%3Dwrap%3Bhtml%3D1%3B%22%20vertex%3D%221%22%20parent%3D%221%22%3E%3CmxGeometry%20x%3D%22377%22%20y%3D%22460%22%20width%3D%2216%22%20height%3D%2260%22%20as%3D%22geometry%22%2F%3E%3C%2FmxCell%3E%3C%2Froot%3E%3C%2FmxGraphModel%3E&lt;/span&gt;" style="rounded=1;whiteSpace=wrap;html=1;" vertex="1" parent="1">
          <mxGeometry x="933" y="511" width="16" height="60" as="geometry" />
        </mxCell>
        <mxCell id="TXACmknkXb2Owu_Iaf9k-117" value="&lt;font style=&quot;font-size: 30px;&quot; face=&quot;Times New Roman&quot;&gt;CAPI&lt;/font&gt;" style="text;html=1;align=center;verticalAlign=middle;whiteSpace=wrap;rounded=0;" vertex="1" parent="1">
          <mxGeometry x="901" y="625" width="60" height="30" as="geometry" />
        </mxCell>
        <mxCell id="TXACmknkXb2Owu_Iaf9k-119" value="返回结果&lt;div&gt;LegacyFeedVO&lt;/div&gt;" style="text;html=1;align=center;verticalAlign=middle;resizable=0;points=[];autosize=1;strokeColor=none;fillColor=none;" vertex="1" parent="1">
          <mxGeometry x="1428" y="484" width="110" height="40" as="geometry" />
        </mxCell>
        <mxCell id="TXACmknkXb2Owu_Iaf9k-120" value="返回结果&lt;div&gt;过滤掉打包渲染&lt;/div&gt;&lt;div&gt;失败的图文视频&lt;/div&gt;&lt;div&gt;List&amp;lt;VideoContent&amp;gt;&lt;/div&gt;" style="text;html=1;align=center;verticalAlign=middle;resizable=0;points=[];autosize=1;strokeColor=none;fillColor=none;" vertex="1" parent="1">
          <mxGeometry x="933" y="525" width="130" height="70" as="geometry" />
        </mxCell>
      </root>
    </mxGraphModel>
  </diagram>
</mxfile>
